<svg id="SvgjsSvg1000" xmlns="http://www.w3.org/2000/svg" version="1.1" xmlns:xlink="http://www.w3.org/1999/xlink" xmlns:svgjs="http://svgjs.com/svgjs" width="42" height="42"><defs id="SvgjsDefs1001"><clipPath id="SvgjsClipPath1010"><path id="SvgjsPath1009" d="M789 483L789 441L831 441L831 483ZM790.555 462.309C790.555 472.762 799.024 481.235 809.4699999999999 481.235C819.9159999999999 481.235 828.3849999999999 472.762 828.3849999999999 462.309C828.3849999999999 451.85600000000005 819.9159999999998 443.382 809.4699999999999 443.382C799.0239999999999 443.382 790.555 451.856 790.555 462.309Z " fill="#ffffff"></path></clipPath></defs><path id="SvgjsPath1007" d="M809.47 443.382C819.916 443.382 828.385 451.856 828.385 462.309C828.385 472.762 819.9159999999999 481.235 809.47 481.235C799.024 481.235 790.5550000000001 472.762 790.5550000000001 462.309C790.5550000000001 451.85600000000005 799.0240000000001 443.382 809.47 443.382Z " fill="#56b356" transform="matrix(1,0,0,1,-789,-441)"></path><path id="SvgjsPath1008" d="M809.47 443.382C819.916 443.382 828.385 451.856 828.385 462.309C828.385 472.762 819.9159999999999 481.235 809.47 481.235C799.024 481.235 790.5550000000001 472.762 790.5550000000001 462.309C790.5550000000001 451.85600000000005 799.0240000000001 443.382 809.47 443.382Z " fill-opacity="0" fill="#ffffff" stroke-dasharray="0" stroke-linejoin="round" stroke-linecap="round" stroke-opacity="1" stroke="#ffffff" stroke-miterlimit="50" stroke-width="4" clip-path="url(&quot;#SvgjsClipPath1010&quot;)" transform="matrix(1,0,0,1,-789,-441)"></path><path id="SvgjsPath1011" d="M809.47 453.574C810.274 453.574 810.9250000000001 454.225 810.9250000000001 455.029L810.9250000000001 466.17482L814.3620000000001 462.718C814.9050000000001 462.172 815.7850000000001 462.172 816.3280000000001 462.718C816.8700000000001 463.264 816.8700000000001 464.149 816.3280000000001 464.695L810.431 470.625C809.888 471.17 809.008 471.17 808.466 470.625C808.4659800000001 470.62498 808.46595 470.62495 808.46593 470.62493L802.569 464.695C802.026 464.149 802.026 463.264 802.569 462.718C803.112 462.172 803.992 462.172 804.534 462.718L808.015 466.21848L808.015 455.029C808.015 454.225 808.6659999999999 453.574 809.47 453.574Z " fill="#ffffff" transform="matrix(1,0,0,1,-789,-441)"></path></svg>