<svg id="SvgjsSvg1031" xmlns="http://www.w3.org/2000/svg" version="1.1" xmlns:xlink="http://www.w3.org/1999/xlink" xmlns:svgjs="http://svgjs.com/svgjs" width="15" height="17"><defs id="SvgjsDefs1032"></defs><path id="SvgjsPath1033" d="M809.47 453.574C810.274 453.574 810.9250000000001 454.225 810.9250000000001 455.029L810.9250000000001 466.17482L814.3620000000001 462.718C814.9050000000001 462.172 815.7850000000001 462.172 816.3280000000001 462.718C816.8700000000001 463.264 816.8700000000001 464.149 816.3280000000001 464.695L810.431 470.625C809.888 471.17 809.008 471.17 808.466 470.625C808.4659800000001 470.62498 808.46595 470.62495 808.46593 470.62493L802.569 464.695C802.026 464.149 802.026 463.264 802.569 462.718C803.112 462.172 803.992 462.172 804.534 462.718L808.015 466.21848L808.015 455.029C808.015 454.225 808.6659999999999 453.574 809.47 453.574Z " fill="#ffffff" transform="matrix(1,0,0,1,-802,-454)"></path></svg>