<svg id="SvgjsSvg1000" xmlns="http://www.w3.org/2000/svg" version="1.1" xmlns:xlink="http://www.w3.org/1999/xlink" xmlns:svgjs="http://svgjs.com/svgjs" width="25" height="25"><defs id="SvgjsDefs1001"></defs><path id="SvgjsPath1007" d="M490.5 156.125C483.665 156.125 478.125 161.666 478.125 168.5C478.125 175.334 483.665 180.875 490.5 180.875C497.335 180.875 502.875 175.334 502.875 168.5C502.875 161.666 497.335 156.125 490.5 156.125ZM490.5 178.625C484.917 178.625 480.375 174.083 480.375 168.5C480.375 162.917 484.917 158.375 490.5 158.375C496.083 158.375 500.625 162.917 500.625 168.5C500.625 174.083 496.083 178.625 490.5 178.625ZM493.83 167.962L491.625 170.166L491.625 163.132C491.625 162.511 491.121 162.007 490.5 162.007C489.879 162.007 489.375 162.511 489.375 163.132L489.375 170.401L486.935 167.96200000000002C486.496 167.52200000000002 485.784 167.52200000000002 485.345 167.96200000000002C484.90500000000003 168.401 484.90500000000003 169.11300000000003 485.345 169.55200000000002L489.58700000000005 173.79500000000002C489.79800000000006 174.00600000000003 490.08400000000006 174.12500000000003 490.38200000000006 174.12500000000003C490.68100000000004 174.12500000000003 490.96700000000004 174.00600000000003 491.17800000000005 173.79500000000002L495.4200000000001 169.55200000000002C495.86000000000007 169.11300000000003 495.86000000000007 168.401 495.4200000000001 167.96200000000002C494.98100000000005 167.52200000000002 494.2680000000001 167.52200000000002 493.8300000000001 167.96200000000002Z " fill="#7cce8d" transform="matrix(1,0,0,1,-478,-156)"></path></svg>