<svg id="SvgjsSvg1011" xmlns="http://www.w3.org/2000/svg" version="1.1" xmlns:xlink="http://www.w3.org/1999/xlink" xmlns:svgjs="http://svgjs.com/svgjs" width="25" height="25"><defs id="SvgjsDefs1012"></defs><path id="SvgjsPath1013" d="M488.5 337.125C481.665 337.125 476.125 342.666 476.125 349.5C476.125 356.334 481.665 361.875 488.5 361.875C495.335 361.875 500.875 356.334 500.875 349.5C500.875 342.666 495.335 337.125 488.5 337.125ZM488.5 359.625C482.917 359.625 478.375 355.083 478.375 349.5C478.375 343.917 482.917 339.375 488.5 339.375C494.083 339.375 498.625 343.917 498.625 349.5C498.625 355.083 494.083 359.625 488.5 359.625ZM495.25 348.375L489.625 348.375L489.625 344.25C489.625 343.629 489.122 343.125 488.5 343.125C487.879 343.125 487.375 343.629 487.375 344.25L487.375 349.5C487.375 350.121 487.879 350.625 488.5 350.625L495.25 350.625C495.871 350.625 496.375 350.121 496.375 349.5C496.375 348.879 495.871 348.375 495.25 348.375Z " fill="#7cce8d" transform="matrix(1,0,0,1,-476,-337)"></path></svg>