<svg id="SvgjsSvg1008" xmlns="http://www.w3.org/2000/svg" version="1.1" xmlns:xlink="http://www.w3.org/1999/xlink" xmlns:svgjs="http://svgjs.com/svgjs" width="34" height="23"><defs id="SvgjsDefs1009"></defs><path id="SvgjsPath1010" d="M495.023 258.661C494.877 257.896 494.63100000000003 257.165 494.305 256.481L495.51 254.992C495.10699999999997 254.29 494.626 253.637 494.08 253.045L492.281 253.719C491.71500000000003 253.197 491.091 252.738 490.41 252.36599999999999L490.50300000000004 250.469C489.77200000000005 250.141 488.99700000000007 249.886 488.189 249.721L487.13300000000004 251.318C486.754 251.27100000000002 486.369 251.238 485.97800000000007 251.238C485.58600000000007 251.238 485.2010000000001 251.271 484.82200000000006 251.318L483.76500000000004 249.721C482.95700000000005 249.886 482.18300000000005 250.141 481.45200000000006 250.469L481.5450000000001 252.36599999999999C480.86300000000006 252.738 480.24000000000007 253.19699999999997 479.6740000000001 253.719L477.8750000000001 253.045C477.3290000000001 253.637 476.8480000000001 254.29 476.44600000000014 254.993L477.65000000000015 256.48199999999997C477.3240000000001 257.16499999999996 477.07800000000015 257.89599999999996 476.93200000000013 258.66099999999994L475.0790000000001 259.15999999999997C475.03700000000015 259.55499999999995 475.0100000000001 259.95599999999996 475.0100000000001 260.366C475.0100000000001 260.77299999999997 475.0370000000001 261.17699999999996 475.0790000000001 261.56899999999996L476.93200000000013 262.06999999999994C477.07800000000015 262.83699999999993 477.3240000000001 263.56399999999996 477.65000000000015 264.2509999999999L476.44600000000014 265.7389999999999C476.8480000000001 266.43999999999994 477.3290000000001 267.0949999999999 477.8750000000001 267.68799999999993L479.6740000000001 267.0129999999999C480.24000000000007 267.53399999999993 480.8630000000001 267.99499999999995 481.5450000000001 268.3669999999999L481.45200000000006 270.26499999999993C482.18300000000005 270.59099999999995 482.95700000000005 270.8449999999999 483.76500000000004 271.0079999999999L484.82200000000006 269.4129999999999C485.2010000000001 269.4609999999999 485.58600000000007 269.4939999999999 485.97800000000007 269.4939999999999C486.3690000000001 269.4939999999999 486.7540000000001 269.4609999999999 487.13300000000004 269.4129999999999L488.189 271.0079999999999C488.99800000000005 270.8449999999999 489.77200000000005 270.59099999999995 490.50300000000004 270.26499999999993L490.41 268.3669999999999C491.091 267.9949999999999 491.71500000000003 267.5339999999999 492.281 267.0129999999999L494.08 267.68799999999993C494.626 267.09599999999995 495.10699999999997 266.43999999999994 495.51 265.73999999999995L494.305 264.25199999999995C494.63100000000003 263.56399999999996 494.877 262.83699999999993 495.023 262.06999999999994L496.875 261.56899999999996C496.919 261.17699999999996 496.945 260.77299999999997 496.945 260.366C496.945 259.95599999999996 496.919 259.556 496.875 259.15999999999997ZM507.942 254.363C507.93 253.897 507.855 253.44 507.729 253.002L508.58799999999997 252.235C508.41799999999995 251.781 508.19699999999995 251.34900000000002 507.931 250.947L506.8 251.173C506.514 250.81 506.19100000000003 250.48 505.822 250.194L506.063 249.07899999999998C505.663 248.81499999999997 505.228 248.58999999999997 504.76599999999996 248.415L503.984 249.259C503.765 249.195 503.53999999999996 249.13799999999998 503.30899999999997 249.101C503.07699999999994 249.064 502.84599999999995 249.046 502.61699999999996 249.038L502.14599999999996 247.99200000000002C501.65199999999993 248.01200000000003 501.167 248.08900000000003 500.70399999999995 248.21300000000002L500.57399999999996 249.347C500.13399999999996 249.502 499.72099999999995 249.71300000000002 499.335 249.967L498.334 249.39700000000002C497.95300000000003 249.69500000000002 497.604 250.03500000000003 497.299 250.412L497.866 251.41C497.60699999999997 251.784 497.39 252.194 497.228 252.632L496.083 252.75C496.019 252.979 495.964 253.215 495.92400000000004 253.459C495.884 253.699 495.86100000000005 253.94 495.848 254.177L496.897 254.65C496.909 255.119 496.983 255.573 497.109 256.012L496.251 256.777C496.41999999999996 257.231 496.64099999999996 257.666 496.907 258.068L498.039 257.84C498.324 258.202 498.647 258.536 499.015 258.822L498.775 259.936C499.17499999999995 260.197 499.60999999999996 260.42199999999997 500.072 260.59799999999996L500.853 259.75299999999993C501.07300000000004 259.8189999999999 501.298 259.8759999999999 501.529 259.91399999999993C501.761 259.9509999999999 501.993 259.9679999999999 502.221 259.97399999999993L502.692 261.02099999999996C503.18600000000004 260.99999999999994 503.671 260.924 504.134 260.80099999999993L504.264 259.6689999999999C504.704 259.51499999999993 505.117 259.2989999999999 505.504 259.04599999999994L506.504 259.6189999999999C506.885 259.3209999999999 507.23400000000004 258.9769999999999 507.54 258.60099999999994L506.97200000000004 257.60599999999994C507.23100000000005 257.22799999999995 507.449 256.82199999999995 507.61 256.3809999999999L508.755 256.2609999999999C508.819 256.03399999999993 508.874 255.7969999999999 508.914 255.5569999999999C508.954 255.3129999999999 508.977 255.0719999999999 508.99 254.8359999999999ZM485.978 266.461C482.579 266.461 479.824 263.732 479.824 260.365C479.824 256.997 482.579 254.268 485.978 254.268C489.37600000000003 254.268 492.13100000000003 256.997 492.13100000000003 260.365C492.13100000000003 263.732 489.37600000000003 266.461 485.978 266.461ZM505.315 255.02C505.051 256.62 503.531 257.704 501.916 257.443C500.301 257.18199999999996 499.207 255.676 499.46999999999997 254.076C499.734 252.476 501.253 251.392 502.86899999999997 251.652C504.484 251.914 505.578 253.42 505.315 255.01999999999998ZM484.404 260.219C484.404 261.013 485.052 261.656 485.851 261.656C486.65 261.656 487.298 261.01300000000003 487.298 260.219C487.298 259.425 486.65 258.781 485.851 258.781C485.052 258.781 484.404 259.425 484.404 260.219Z " fill="#7cce8d" transform="matrix(1,0,0,1,-475,-248)"></path></svg>